<?xml version="1.0" encoding="UTF-8"?>
<svg width="24px" height="24px" viewBox="0 0 24 24" version="1.1" xmlns="http://www.w3.org/2000/svg" xmlns:xlink="http://www.w3.org/1999/xlink">
    <title>切片</title>
    <g id="首页" stroke="none" stroke-width="1" fill="none" fill-rule="evenodd">
        <g id="菜单-滚动-视觉效果" transform="translate(-32.000000, -825.000000)">
            <g id="标签栏备份" transform="translate(0.000000, 819.000000)">
                <g id="编组" transform="translate(32.000000, 6.000000)">
                    <rect id="底板" x="0" y="0" width="24" height="24"></rect>
                    <circle id="椭圆形" fill="#47EFE9" cx="16" cy="16" r="8"></circle>
                    <path d="M17.2465717,21.5817701 L6.75342831,21.5817701 C5.76772449,21.5817701 4.92899766,20.863591 4.77726563,19.8896355 L3.30174857,10.4184111 C3.18927024,9.69642177 3.47948186,8.97055815 4.05871377,8.52512543 L10.7808025,3.35579986 C11.4996175,2.80302692 12.5003825,2.80302692 13.2191975,3.35579986 L19.9412862,8.52512543 C20.5205181,8.97055815 20.8107298,9.69642177 20.6982514,10.4184111 L19.2227344,19.8896355 C19.0710023,20.863591 18.2322755,21.5817701 17.2465717,21.5817701 Z" id="Stroke-1备份-3" stroke="#002726" stroke-width="1.5" stroke-linecap="round" stroke-linejoin="round"></path>
                    <rect id="矩形" fill="#002726" x="7.5" y="16" width="9" height="1.5" rx="0.75"></rect>
                </g>
            </g>
        </g>
    </g>
</svg>