<?xml version="1.0" encoding="UTF-8"?>
<svg width="25px" height="24px" viewBox="0 0 25 24" version="1.1" xmlns="http://www.w3.org/2000/svg" xmlns:xlink="http://www.w3.org/1999/xlink">
    <title>切片</title>
    <g id="页面-1" stroke="none" stroke-width="1" fill="none" fill-rule="evenodd">
        <g id="【购物车2.0】" transform="translate(-251.000000, -1395.000000)">
            <g id="标签栏备份" transform="translate(0.000000, 1389.000000)">
                <g id="TAB标签备份-2" transform="translate(251.250000, 6.000000)">
                    <rect id="矩形备份-21" fill="#47EFE9" x="6" y="10" width="18" height="14" rx="7"></rect>
                    <path d="M1.30111781,2.75 L2.83260802,2.75 C4.25109668,2.75 5.44709477,3.80734433 5.62100258,5.21513202 L6.79828391,14.7452515 C6.92207978,15.7473819 7.77344822,16.50005 8.78319605,16.50005 L15.0449994,16.50005 C18.1076869,16.50005 20.6787868,14.193354 21.0098437,11.1486116 L21.4579146,7.0276872 C21.5773115,5.92958968 20.7839179,4.94261545 19.6858204,4.82321856 C19.6140224,4.81541192 19.5418543,4.8115 19.4696332,4.8115 L10.9279782,4.8115 L10.9279782,4.8115" id="路径-12备份" stroke="#002726" stroke-width="1.5" stroke-linecap="round" stroke-linejoin="round"></path>
                    <circle id="椭圆形备份-9" fill="#002726" cx="9" cy="21" r="1.5"></circle>
                    <circle id="椭圆形备份-10" fill="#002726" cx="18" cy="21" r="1.5"></circle>
                    <line x1="10.0511178" y1="11" x2="16.0511178" y2="11" id="直线-4备份" stroke="#002726" stroke-width="1.5" stroke-linecap="round"></line>
                </g>
            </g>
        </g>
    </g>
</svg>