<?xml version="1.0" encoding="UTF-8"?>
<svg width="24px" height="24px" viewBox="0 0 24 24" version="1.1" xmlns="http://www.w3.org/2000/svg" xmlns:xlink="http://www.w3.org/1999/xlink">
    <title>切片</title>
    <g id="首页" stroke="none" stroke-width="1" fill="none" fill-rule="evenodd">
        <g id="菜单-滚动-视觉效果" transform="translate(-319.000000, -825.000000)">
            <g id="标签栏备份" transform="translate(0.000000, 819.000000)">
                <g id="编组" transform="translate(319.000000, 6.000000)">
                    <rect id="底板" x="0" y="0" width="24" height="24"></rect>
                    <path d="M12,1.75 C17.6607811,1.75 22.25,6.33921887 22.25,12 C22.25,17.6607811 17.6607811,22.25 12,22.25 C6.33921887,22.25 1.75,17.6607811 1.75,12 C1.75,6.33921887 6.33921887,1.75 12,1.75 Z M12,3.25 C7.16764599,3.25 3.25,7.16764599 3.25,12 C3.25,16.832354 7.16764599,20.75 12,20.75 C16.832354,20.75 20.75,16.832354 20.75,12 C20.75,7.16764599 16.832354,3.25 12,3.25 Z" id="形状" fill="#999999" fill-rule="nonzero"></path>
                    <rect id="矩形" fill="#999999" x="16.5" y="8" width="1.5" height="4" rx="0.75"></rect>
                    <rect id="矩形备份-12" fill="#999999" x="9.5" y="7.5" width="1.5" height="5" rx="0.75"></rect>
                    <path d="M15.9017738,14.8909426 C16.1409172,14.5527366 16.6089514,14.4724304 16.9471574,14.7115738 C17.2853634,14.9507172 17.3656696,15.4187514 17.1265262,15.7569574 C15.6817808,17.8001733 12.7559051,18.5131928 10.5465388,17.3786213 C10.1780703,17.1894024 10.0327597,16.7373074 10.2219787,16.3688388 C10.4111976,16.0003703 10.8632926,15.8550597 11.2317612,16.0442787 C12.7774743,16.8380457 14.8888023,16.3235269 15.9017738,14.8909426 Z" id="路径" fill="#999999" fill-rule="nonzero"></path>
                </g>
            </g>
        </g>
    </g>
</svg>