<?xml version="1.0" standalone="no"?><!DOCTYPE svg PUBLIC "-//W3C//DTD SVG 1.1//EN" "http://www.w3.org/Graphics/SVG/1.1/DTD/svg11.dtd"><svg t="1683341920931" class="icon" viewBox="0 0 1024 1024" version="1.1" xmlns="http://www.w3.org/2000/svg" p-id="1504" xmlns:xlink="http://www.w3.org/1999/xlink" width="40" height="40"><path d="M163.560727 116.363636m93.090909 0l512 0q93.090909 0 93.090909 93.090909l0 430.545455q0 93.090909-93.090909 93.090909l-512 0q-93.090909 0-93.090909-93.090909l0-430.545455q0-93.090909 93.090909-93.090909Z" fill="#66CCCA" opacity=".8" p-id="1505"></path><path d="M117.015273 205.917091m93.090909 0l605.090909 0q93.090909 0 93.090909 93.090909l0 512q0 93.090909-93.090909 93.090909l-605.090909 0q-93.090909 0-93.090909-93.090909l0-512q0-93.090909 93.090909-93.090909Z" fill="#29CCCC" opacity=".8" p-id="1506"></path><path d="M699.205818 444.229818a69.818182 69.818182 0 0 0 69.818182-69.818182 69.818182 69.818182 0 0 0-69.818182-69.818181 69.818182 69.818182 0 0 0-69.818182 69.818181 69.538909 69.538909 0 0 0 69.818182 69.818182z" fill="#FFFFFF" p-id="1507"></path><path d="M596.805818 515.723636l-85.178182 147.525819a46.545455 46.545455 0 0 0 40.308364 69.818181h170.356364a46.545455 46.545455 0 0 0 40.331636-69.818181l-85.201455-147.525819a46.545455 46.545455 0 0 0-80.616727 0z" fill="#FFFFFF" p-id="1508"></path><path d="M401.803636 422.144l-139.264 241.198545a46.545455 46.545455 0 0 0 40.308364 69.818182h278.528a46.545455 46.545455 0 0 0 40.308364-69.818182l-139.264-241.198545a46.545455 46.545455 0 0 0-80.616728 0z" fill="#FFFFFF" opacity=".9" p-id="1509"></path></svg>