<?xml version="1.0" standalone="no"?><!DOCTYPE svg PUBLIC "-//W3C//DTD SVG 1.1//EN" "http://www.w3.org/Graphics/SVG/1.1/DTD/svg11.dtd"><svg t="1683348408891" class="icon" viewBox="0 0 1024 1024" version="1.1" xmlns="http://www.w3.org/2000/svg" p-id="1325" xmlns:xlink="http://www.w3.org/1999/xlink" width="40" height="40"><path d="M729.58 160.16H416.05c-67.09 0-123.15 48.16-135.43 111.72h-7.33a113.83 113.83 0 0 0-113.7 113.7v362a113.83 113.83 0 0 0 113.7 113.7h362A113.82 113.82 0 0 0 749 748.2c66.91-9.47 118.53-67.1 118.53-136.57V298.1c-0.01-76.1-61.89-137.94-137.95-137.94zM689 747.6a53.76 53.76 0 0 1-53.7 53.7h-362a53.76 53.76 0 0 1-53.7-53.7v-362a53.76 53.76 0 0 1 53.7-53.7h362a53.76 53.76 0 0 1 53.7 53.7z m118.52-136A78.08 78.08 0 0 1 749 687.12V385.58a113.83 113.83 0 0 0-113.7-113.7H342.66a78.07 78.07 0 0 1 73.39-51.72h313.53a78 78 0 0 1 77.94 77.94z" p-id="1326"></path><path d="M553.49 536.59h-69.07l0.28-69.07a30 30 0 1 0-60-0.25l-0.28 69.32h-69.33a30 30 0 0 0 0 60h69.08l-0.29 69.08a30 30 0 0 0 29.88 30.12h0.12a30 30 0 0 0 30-29.88l0.29-69.32h69.32a30 30 0 0 0 0-60z" p-id="1327"></path></svg>