<?xml version="1.0" standalone="no"?><!DOCTYPE svg PUBLIC "-//W3C//DTD SVG 1.1//EN" "http://www.w3.org/Graphics/SVG/1.1/DTD/svg11.dtd"><svg t="1683341872646" class="icon" viewBox="0 0 1024 1024" version="1.1" xmlns="http://www.w3.org/2000/svg" p-id="1019" xmlns:xlink="http://www.w3.org/1999/xlink" width="40" height="40"><path d="M861.090909 732.695273a46.545455 46.545455 0 0 1-46.545454-46.545455v-174.173091a302.894545 302.894545 0 0 0-302.545455-302.545454 302.894545 302.894545 0 0 0-302.545455 302.545454v174.173091a46.545455 46.545455 0 0 1-46.545454 46.545455 46.545455 46.545455 0 0 1-46.545455-46.545455v-174.173091a396.078545 396.078545 0 0 1 395.636364-395.636363 396.078545 396.078545 0 0 1 395.636364 395.636363v174.173091a46.545455 46.545455 0 0 1-46.545455 46.545455z" fill="#78B1EF" opacity=".8" p-id="1020"></path><path d="M116.363636 418.164364m110.545455 0l0 0q110.545455 0 110.545454 110.545454l0 174.545455q0 110.545455-110.545454 110.545454l0 0q-110.545455 0-110.545455-110.545454l0-174.545455q0-110.545455 110.545455-110.545454Z" fill="#1C7BF2" opacity=".8" p-id="1021"></path><path d="M686.149818 907.613091H512a46.545455 46.545455 0 0 1-46.545455-46.545455 46.545455 46.545455 0 0 1 46.545455-46.545454h174.149818a128.512 128.512 0 0 0 128.395637-128.372364 46.545455 46.545455 0 0 1 46.545454-46.545454 46.545455 46.545455 0 0 1 46.545455 46.545454 221.742545 221.742545 0 0 1-221.486546 221.463273z" fill="#78B1EF" opacity=".8" p-id="1022"></path><path d="M686.545455 418.164364m110.545454 0l0 0q110.545455 0 110.545455 110.545454l0 174.545455q0 110.545455-110.545455 110.545454l0 0q-110.545455 0-110.545454-110.545454l0-174.545455q0-110.545455 110.545454-110.545454Z" fill="#1C7BF2" opacity=".8" p-id="1023"></path><path d="M512 813.800727m-93.090909 0a93.090909 93.090909 0 1 0 186.181818 0 93.090909 93.090909 0 1 0-186.181818 0Z" fill="#1C7BF2" opacity=".8" p-id="1024"></path></svg>