<?xml version="1.0" standalone="no"?><!DOCTYPE svg PUBLIC "-//W3C//DTD SVG 1.1//EN" "http://www.w3.org/Graphics/SVG/1.1/DTD/svg11.dtd"><svg t="1683348381822" class="icon" viewBox="0 0 1024 1024" version="1.1" xmlns="http://www.w3.org/2000/svg" p-id="1164" xmlns:xlink="http://www.w3.org/1999/xlink" width="40" height="40"><path d="M809 277H634v-13a114 114 0 0 0-228 0v13H229.17a30 30 0 1 0 0 60H809a30 30 0 0 0 0-60z m-235 0H466v-13a54 54 0 0 1 108 0zM476 714V420a30 30 0 0 0-60 0v294a30 30 0 0 0 60 0zM624 714V420a30 30 0 0 0-60 0v294a30 30 0 0 0 60 0z" p-id="1165"></path><path d="M733 390a30 30 0 0 0-30 30v317.31A67.77 67.77 0 0 1 635.31 805H403.69A67.77 67.77 0 0 1 336 737.31V420a30 30 0 0 0-60 0v317.31A127.83 127.83 0 0 0 403.69 865h231.62A127.83 127.83 0 0 0 763 737.31V420a30 30 0 0 0-30-30z" p-id="1166"></path></svg>