<?xml version="1.0" standalone="no"?><!DOCTYPE svg PUBLIC "-//W3C//DTD SVG 1.1//EN" "http://www.w3.org/Graphics/SVG/1.1/DTD/svg11.dtd"><svg height="100" node-id="1" sillyvg="true" template-height="100" template-width="100" version="1.1" viewBox="0 0 100 100" width="100" xmlns="http://www.w3.org/2000/svg" xmlns:xlink="http://www.w3.org/1999/xlink"><defs node-id="36"><linearGradient gradientUnits="objectBoundingBox" id="linearGradient-1" node-id="5" spreadMethod="pad" x1="0.18" x2="0.82" y1="0" y2="1"><stop offset="0" stop-color="#33afff"></stop><stop offset="1" stop-color="#405cff"></stop></linearGradient><linearGradient gradientUnits="objectBoundingBox" id="linearGradient-2" node-id="8" spreadMethod="pad" x1="-0.533462" x2="2.876229" y1="-0.42148125" y2="2.6353528"><stop offset="0" stop-color="#33afff"></stop><stop offset="1" stop-color="#405cff"></stop></linearGradient><linearGradient gradientUnits="objectBoundingBox" id="linearGradient-3" node-id="11" spreadMethod="pad" x1="0" x2="1" y1="0" y2="1"><stop offset="0" stop-color="#33afff"></stop><stop offset="1" stop-color="#405cff"></stop></linearGradient></defs><g node-id="55"><g node-id="56"><g node-id="57"><path d="M 0.57 0.57 L 99.43 0.57 L 99.43 99.43 L 0.57 99.43 Z" fill="none" group-id="1,2,3" id="矩形" node-id="17" stroke="#979797" stroke-linecap="butt" stroke-opacity="0" stroke-width="1.1494253" target-height="98.86" target-width="98.86" target-x="0.57" target-y="0.57"></path></g><g node-id="58"><path d="M 20.00 28.25 L 60.00 28.25 L 60.00 87.25 L 20.00 87.25 Z" fill="#c0d5fb" fill-rule="evenodd" group-id="1,2,4" id="矩形备份-31" node-id="19" stroke="none" target-height="59" target-width="40" target-x="20" target-y="28.25"></path><path d="M 6.00 13.25 L 59.00 13.25 L 59.00 86.25 L 6.00 86.25 Z" fill="none" group-id="1,2,4" id="矩形" node-id="20" stroke="#333333" stroke-linecap="butt" stroke-width="2" target-height="73" target-width="53" target-x="6" target-y="13.25"></path><g node-id="59"><path d="M 33.75 41.00 L 73.75 41.00 L 73.75 91.00 L 33.75 91.00 Z" fill="url(#linearGradient-1)" fill-rule="evenodd" group-id="1,2,4,5" id="矩形备份-26" node-id="22" stroke="none" target-height="50" target-width="40" target-x="33.75" target-y="41"></path><path d="M 57.50 84.75 L 57.20 86.22 L 56.40 87.40 L 55.22 88.20 L 53.75 88.50 L 52.28 88.20 L 51.10 87.40 L 50.30 86.22 L 50.00 84.75 L 50.30 83.28 L 51.10 82.10 L 52.28 81.30 L 53.75 81.00 L 55.22 81.30 L 56.40 82.10 L 57.20 83.28 L 57.50 84.75 Z" fill="#ffffff" fill-rule="evenodd" group-id="1,2,4,5" id="椭圆形" node-id="23" stroke="none" target-height="7.5" target-width="7.5" target-x="50" target-y="81"></path><path d="M 41.25 48.50 L 66.25 48.50 L 66.25 53.50 L 41.25 53.50 Z" fill="#ffffff" fill-rule="evenodd" group-id="1,2,4,5" id="矩形" node-id="24" stroke="none" target-height="5" target-width="25" target-x="41.25" target-y="48.5"></path><path d="M 41.25 58.50 L 66.25 58.50 L 66.25 63.50 L 41.25 63.50 Z" fill="#ffffff" fill-rule="evenodd" group-id="1,2,4,5" id="矩形备份-38" node-id="25" stroke="none" target-height="5" target-width="25" target-x="41.25" target-y="58.5"></path><path d="M 41.25 68.50 L 66.25 68.50 L 66.25 73.50 L 41.25 73.50 Z" fill="#ffffff" fill-rule="evenodd" group-id="1,2,4,5" id="矩形备份-39" node-id="26" stroke="none" target-height="5" target-width="25" target-x="41.25" target-y="68.5"></path></g><path d="M 75.10 46.00 L 85.10 46.00 L 85.10 31.00" fill="none" group-id="1,2,4" id="路径-4" node-id="27" stroke="#333333" stroke-linecap="butt" stroke-width="2" target-height="15" target-width="10" target-x="75.1" target-y="31"></path><path d="M 22.75 18.00 L 26.50 18.00 L 26.50 21.75 L 22.75 21.75 Z" fill="url(#linearGradient-2)" fill-rule="evenodd" group-id="1,2,4,6" id="矩形" node-id="29" stroke="none" target-height="3.75" target-width="3.75" target-x="22.75" target-y="18"></path><path d="M 16.50 18.00 L 20.25 18.00 L 20.25 21.75 L 16.50 21.75 Z" fill="url(#linearGradient-2)" fill-rule="evenodd" group-id="1,2,4,6" id="矩形备份-50" node-id="30" stroke="none" target-height="3.75" target-width="3.75" target-x="16.5" target-y="18"></path><path d="M 10.25 18.00 L 14.00 18.00 L 14.00 21.75 L 10.25 21.75 Z" fill="url(#linearGradient-2)" fill-rule="evenodd" group-id="1,2,4,6" id="矩形备份-51" node-id="31" stroke="none" target-height="3.75" target-width="3.75" target-x="10.25" target-y="18"></path><path d="M 95.25 20.00 L 95.08 21.83 L 94.62 23.50 L 93.88 25.05 L 92.89 26.45 L 91.70 27.64 L 90.30 28.63 L 88.75 29.37 L 87.08 29.83 L 85.25 30.00 L 83.42 29.83 L 81.75 29.37 L 80.20 28.63 L 78.80 27.64 L 77.61 26.45 L 76.62 25.05 L 75.88 23.50 L 75.42 21.83 L 75.25 20.00 L 75.42 18.17 L 75.88 16.50 L 76.62 14.95 L 77.61 13.55 L 78.80 12.36 L 80.20 11.37 L 81.75 10.63 L 83.42 10.17 L 85.25 10.00 L 87.08 10.17 L 88.75 10.63 L 90.30 11.37 L 91.70 12.36 L 92.89 13.55 L 93.88 14.95 L 94.62 16.50 L 95.08 18.17 L 95.25 20.00 Z" fill="url(#linearGradient-3)" fill-rule="evenodd" group-id="1,2,4,7" id="椭圆形" node-id="33" stroke="none" target-height="20" target-width="20" target-x="75.25" target-y="10"></path><path d="M 85.25 15.00 L 86.61 15.19 L 87.77 15.68 L 88.79 16.46 L 89.57 17.48 L 90.06 18.64 L 90.25 20.00 L 90.06 21.36 L 89.57 22.52 L 88.79 23.54 L 87.77 24.32 L 86.61 24.81 L 85.25 25.00 L 83.89 24.81 L 82.73 24.32 L 81.71 23.54 L 80.93 22.52 L 80.44 21.36 L 80.25 20.00 L 80.44 18.64 L 80.93 17.48 L 81.71 16.46 L 82.73 15.68 L 83.89 15.19 L 85.25 15.00 Z M 85.25 17.00 L 84.07 17.24 L 83.13 17.88 L 82.49 18.82 L 82.25 20.00 L 82.49 21.18 L 83.13 22.12 L 84.07 22.76 L 85.25 23.00 L 86.43 22.76 L 87.37 22.12 L 88.01 21.18 L 88.25 20.00 L 88.01 18.83 L 87.96 18.71 L 87.25 19.00 L 86.54 18.71 L 86.25 18.00 L 86.54 17.29 L 86.42 17.24 L 85.25 17.00 Z" fill="#ffffff" fill-rule="evenodd" group-id="1,2,4,7" id="形状结合" node-id="34" stroke="none" target-height="10" target-width="10" target-x="80.25" target-y="15"></path></g></g></g></svg>