<?xml version="1.0" standalone="no"?><!DOCTYPE svg PUBLIC "-//W3C//DTD SVG 1.1//EN" "http://www.w3.org/Graphics/SVG/1.1/DTD/svg11.dtd"><svg t="1683348466583" class="icon" viewBox="0 0 1024 1024" version="1.1" xmlns="http://www.w3.org/2000/svg" p-id="1279" xmlns:xlink="http://www.w3.org/1999/xlink" width="40" height="40"><path d="M787.84 819.2H206.4c-7.68 0-14.88-3.68-19.52-9.76-4.64-6.08-6.08-14.08-3.84-21.44l100.48-343.36c3.04-10.4 12.64-17.6 23.36-17.6h581.44c7.68 0 14.88 3.68 19.52 9.76 4.64 6.08 6.08 14.08 3.84 21.44L811.2 801.76c-3.04 10.24-12.48 17.44-23.36 17.44z m-548.96-48.64H769.6l86.24-294.56H325.12l-86.24 294.56z" fill="#2A2C2C" p-id="1280"></path><path d="M787.84 819.2H206.24c-13.44 0-24.32-10.88-24.32-24.32V228.96c0-13.44 10.88-24.32 24.32-24.32H451.2c7.04 0 13.6 3.04 18.24 8.16l82.88 93.6h235.52c13.44 0 24.32 10.88 24.32 24.32v115.2a24.32 24.32 0 1 1-48.64 0V355.2H541.28c-7.04 0-13.6-3.04-18.24-8.16l-82.88-93.6h-209.6v517.28h557.28c13.44 0 24.32 10.88 24.32 24.32s-10.88 24.16-24.32 24.16z" fill="#2A2C2C" p-id="1281"></path></svg>