<svg width="20" height="20" viewBox="0 0 20 20" fill="none" xmlns="http://www.w3.org/2000/svg">
<g id="Icon &#229;&#155;&#190;&#230;&#160;&#135;/&#230;&#144;&#156;&#231;&#180;&#162;-&#233;&#166;&#150;&#233;&#161;&#181;">
<path id="&#229;&#189;&#162;&#231;&#138;&#182;" fill-rule="evenodd" clip-rule="evenodd" d="M10.1666 2.33337C14.3087 2.33337 17.6666 5.69124 17.6666 9.83337V10.1667C17.6666 11.9984 17.01 13.6767 15.9193 14.9791L17.3997 16.4602C17.6599 16.7206 17.6598 17.1427 17.3994 17.403C17.1626 17.6396 16.7923 17.661 16.5313 17.4673L16.4566 17.4027L14.9764 15.9215C13.6744 17.0109 11.9971 17.6667 10.1666 17.6667H9.83325C5.69112 17.6667 2.33325 14.3088 2.33325 10.1667V9.83337C2.33325 5.69124 5.69112 2.33337 9.83325 2.33337H10.1666ZM10.1666 3.66671H9.83325C6.49561 3.66671 3.77728 6.31829 3.66988 9.62982L3.66659 9.83337V10.1667C3.66659 13.5043 6.31816 16.2227 9.6297 16.3301L9.83325 16.3334H10.1666C11.8599 16.3334 13.3937 15.6509 14.5081 14.5461L14.5246 14.5266L14.5443 14.5099C15.6057 13.4402 16.2776 11.9835 16.33 10.3703L16.3333 10.1667V9.83337C16.3333 6.49573 13.6817 3.7774 10.3701 3.67L10.1666 3.66671Z" fill="#999999"/>
</g>
</svg>
