<?xml version="1.0" standalone="no"?><!DOCTYPE svg PUBLIC "-//W3C//DTD SVG 1.1//EN" "http://www.w3.org/Graphics/SVG/1.1/DTD/svg11.dtd"><svg t="1683343342089" class="icon" viewBox="0 0 1024 1024" version="1.1" xmlns="http://www.w3.org/2000/svg" p-id="3428" width="40" height="40" xmlns:xlink="http://www.w3.org/1999/xlink"><path d="M474.453333 884.053333c-225.28 0-409.6-184.32-409.6-409.6s184.32-409.6 409.6-409.6 409.6 184.32 409.6 409.6-184.32 409.6-409.6 409.6z m0-68.266666c187.733333 0 341.333333-153.6 341.333334-341.333334s-153.6-341.333333-341.333334-341.333333-341.333333 153.6-341.333333 341.333333 153.6 341.333333 341.333333 341.333334z m252.586667 54.613333c-13.653333-13.653333-10.24-37.546667 3.413333-47.786667s37.546667-10.24 47.786667 3.413334l64.853333 78.506666c13.653333 13.653333 10.24 37.546667-3.413333 47.786667s-37.546667 10.24-47.786667-3.413333l-64.853333-78.506667z" fill="#979797" p-id="3429"></path></svg>