<?xml version="1.0" standalone="no"?><!DOCTYPE svg PUBLIC "-//W3C//DTD SVG 1.1//EN" "http://www.w3.org/Graphics/SVG/1.1/DTD/svg11.dtd"><svg t="1683341912747" class="icon" viewBox="0 0 1024 1024" version="1.1" xmlns="http://www.w3.org/2000/svg" p-id="1343" xmlns:xlink="http://www.w3.org/1999/xlink" width="40" height="40"><path d="M735.045818 511.976727h-93.090909v-175.406545a128.139636 128.139636 0 0 0-128-128 128.162909 128.162909 0 0 0-128 128v175.406545h-93.090909v-175.406545a221.346909 221.346909 0 0 1 221.090909-221.090909 221.346909 221.346909 0 0 1 221.090909 221.090909z" fill="#B177ED" opacity=".8" p-id="1344"></path><path d="M807.121455 907.636364h-590.219637a93.090909 93.090909 0 0 1-92.811636-100.235637l32.209454-418.909091a93.090909 93.090909 0 0 1 92.811637-85.946181h525.777454a93.090909 93.090909 0 0 1 92.811637 85.946181l32.232727 418.909091a93.090909 93.090909 0 0 1-92.811636 100.235637z" fill="#8D1DEF" opacity=".8" p-id="1345"></path><path d="M339.409455 512m-46.545455 0a46.545455 46.545455 0 1 0 93.090909 0 46.545455 46.545455 0 1 0-93.090909 0Z" fill="#FFFFFF" p-id="1346"></path><path d="M688.500364 512m-46.545455 0a46.545455 46.545455 0 1 0 93.090909 0 46.545455 46.545455 0 1 0-93.090909 0Z" fill="#FFFFFF" p-id="1347"></path></svg>