<?xml version="1.0" standalone="no"?><!DOCTYPE svg PUBLIC "-//W3C//DTD SVG 1.1//EN" "http://www.w3.org/Graphics/SVG/1.1/DTD/svg11.dtd"><svg t="1683341903355" class="icon" viewBox="0 0 1024 1024" version="1.1" xmlns="http://www.w3.org/2000/svg" p-id="1181" xmlns:xlink="http://www.w3.org/1999/xlink" width="40" height="40"><path d="M115.968 115.991273m93.090909 0l605.463273 0q93.090909 0 93.090909 93.090909l0 37.003636q0 93.090909-93.090909 93.090909l-605.463273 0q-93.090909 0-93.090909-93.090909l0-37.003636q0-93.090909 93.090909-93.090909Z" fill="#ED7A77" opacity=".8" p-id="1182"></path><path d="M535.924364 821.131636l208.151272 55.365819a93.090909 93.090909 0 0 0 117.015273-89.949091v-486.609455a93.090909 93.090909 0 0 0-93.090909-93.090909h-512a93.090909 93.090909 0 0 0-93.090909 93.090909v486.609455a93.090909 93.090909 0 0 0 117.015273 89.949091l208.151272-55.365819a93.090909 93.090909 0 0 1 47.848728 0z" fill="#EF271D" opacity=".8" p-id="1183"></path><path d="M554.123636 375.458909l28.485819 57.693091 63.650909 9.309091a46.964364 46.964364 0 0 1 26.042181 80.128l-46.056727 44.916364 10.868364 63.394909a46.987636 46.987636 0 0 1-68.165818 49.524363l-56.948364-29.975272-56.948364 29.928727a46.987636 46.987636 0 0 1-68.165818-49.524364l10.868364-63.394909-46.056727-44.916364a46.964364 46.964364 0 0 1 26.042181-80.128l63.650909-9.30909 28.485819-57.693091a46.987636 46.987636 0 0 1 84.247272 0.046545z" fill="#FFFFFF" p-id="1184"></path></svg>