<?xml version="1.0" standalone="no"?><!DOCTYPE svg PUBLIC "-//W3C//DTD SVG 1.1//EN" "http://www.w3.org/Graphics/SVG/1.1/DTD/svg11.dtd"><svg t="1684314967970" class="icon" viewBox="0 0 1024 1024" version="1.1" xmlns="http://www.w3.org/2000/svg" p-id="9906" width="20" height="20" xmlns:xlink="http://www.w3.org/1999/xlink"><path d="M217.358222 979.882667c-58.154667 0-97.678222-46.72-97.678222-116.252445V160.355556c0-69.532444 39.523556-116.252444 97.706667-116.252445 22.229333 0 45.696 6.897778 69.262222 20.494222l553.585778 352.284445c40.917333 23.594667 64.085333 57.628444 64.085333 95.175111 0 37.518222-23.04 71.495111-64.938667 95.701333l-551.722666 351.004445c-24.618667 14.236444-48.056889 21.12-70.300445 21.12z m0.028445-878.876445c-36.451556 0-40.817778 41.514667-40.817778 59.363556v703.274666c0 17.848889 4.380444 59.363556 40.789333 59.363556 11.946667 0 26.211556-4.451556 40.817778-12.871111l551.637333-351.004445c24.263111-14.037333 37.632-30.961778 37.632-47.061333 0-16.142222-13.326222-33.095111-36.608-46.535111L257.137778 113.251556c-13.553778-7.793778-27.790222-12.245333-39.751111-12.245334z" fill="#ffffff" p-id="9907"></path><path d="M500.096 696.248889a14.236444 14.236444 0 0 1-7.608889-26.268445l7.68-4.835555a14.222222 14.222222 0 0 1 15.160889 24.078222l-7.68 4.835556a14.122667 14.122667 0 0 1-7.552 2.190222zM291.754667 827.292444a14.208 14.208 0 0 1-7.594667-26.268444l159.616-100.408889a14.222222 14.222222 0 0 1 15.146667 24.078222l-159.616 100.408889a14.165333 14.165333 0 0 1-7.552 2.190222z" fill="#ffffff" p-id="9908"></path></svg>